<svg xmlns="http://www.w3.org/2000/svg" xmlns:xlink="http://www.w3.org/1999/xlink" id="Capa_1" x="0px" y="0px" width="200px" height="23.4px" viewBox="0 0 200 23.4" xml:space="preserve"><g>	<path d="M21.6,0c0.3,0,0.7,0.1,1,0.1c1.1,0.1,2.2,0.3,3.3,0.7c1.8,0.7,2.8,2,3.1,3.9c0.2,1.2,0.2,2.5-0.1,3.7  c-0.3,1.6-1.2,2.6-2.7,3.1c-0.2,0.1-0.4,0.1-0.5,0.2c0,0,0,0,0,0.1c0.1,0,0.1,0,0.2,0c0.6,0.1,1.2,0.2,1.8,0.5  c1.1,0.5,1.8,1.3,2.1,2.5c0.4,1.7,0.5,3.4,0,5.1c-0.5,1.8-1.7,2.9-3.5,3.3c-1,0.3-2,0.4-3,0.4c-7.6,0-15.3,0-22.9,0  c-0.1,0-0.2,0-0.2,0C0,15.6,0,7.8,0,0C7.2,0,14.4,0,21.6,0z M6.7,17.9c0.1,0,0.1,0,0.2,0c4.6,0,9.2,0,13.8,0c0.2,0,0.4,0,0.6,0  c1.3-0.2,2-1,1.9-2.2c-0.1-0.8-0.4-1.4-1.1-1.8c-0.5-0.2-1-0.3-1.5-0.3c-4.6,0-9.1,0-13.7,0c-0.1,0-0.1,0-0.2,0  C6.7,15.1,6.7,16.5,6.7,17.9z M6.7,9.5c0.1,0,0.2,0,0.2,0c4.5,0,9,0,13.5,0c0.1,0,0.2,0,0.3,0c0.5,0,1-0.2,1.3-0.6  c0.6-0.8,0.7-1.6,0.3-2.5c-0.4-0.8-1-1.2-1.9-1.2c-4.5,0-9,0-13.4,0c-0.1,0-0.1,0-0.2,0C6.7,6.6,6.7,8,6.7,9.5z"></path>	<path d="M158,0c0.3,0,0.7,0.1,1,0.1c1.1,0.1,2.2,0.3,3.3,0.7c1.9,0.7,2.9,2.1,3.2,4.1c0.2,1.3,0.1,2.5-0.2,3.8  c-0.3,1.3-1.1,2.2-2.4,2.6c-0.3,0.1-0.5,0.2-0.8,0.3c0,0,0,0,0,0.1c0.1,0,0.1,0,0.2,0c0.5,0.1,0.9,0.2,1.4,0.3  c1.2,0.4,2.1,1.3,2.4,2.5c0.5,1.8,0.5,3.6,0,5.3c-0.5,1.7-1.7,2.8-3.5,3.2c-1,0.3-2,0.4-3,0.4c-7.6,0-15.3,0-22.9,0  c-0.1,0-0.1,0-0.2,0c0-0.1,0-0.2,0-0.2c0-7.7,0-15.3,0-23c0-0.1,0-0.1,0-0.2C143.6,0,150.8,0,158,0z M143,17.9c0.1,0,0.2,0,0.2,0  c4.6,0,9.1,0,13.7,0c0.2,0,0.4,0,0.6,0c1.3-0.2,2-1,1.9-2.2c-0.1-1-0.6-1.7-1.5-1.9c-0.4-0.1-0.7-0.1-1.1-0.1c-4.5,0-9.1,0-13.6,0  c-0.1,0-0.1,0-0.2,0C143,15,143,16.5,143,17.9z M143,9.5c0.1,0,0.2,0,0.2,0c4.5,0,9,0,13.5,0c0.1,0,0.1,0,0.2,0  c1,0,1.7-0.6,1.9-1.6c0.3-1.5-0.7-2.7-2.2-2.7c-4.4,0-8.9,0-13.3,0c-0.1,0-0.2,0-0.3,0C143,6.6,143,8,143,9.5z"></path>	<path d="M197,0c0.2,0,0.4,0.1,0.6,0.1c0.9,0.3,1.5,0.9,1.9,1.7c0.3,0.6,0.4,1.3,0.4,2c0,6.4,0,12.9,0,19.3c0,0.1,0,0.1,0,0.2  c-2.4,0-4.8,0-7.3,0c0-1.7,0-3.4,0-5.2c-5.5,0-10.9,0-16.4,0c0,1.7,0,3.4,0,5.2c-2.4,0-4.8,0-7.3,0c0-0.1,0-0.1,0-0.2  c0-6.4,0-12.8,0-19.2c0-1,0.2-1.9,0.8-2.7c0.5-0.7,1.2-1.1,2.1-1.2c0,0,0.1,0,0.1,0C180.3,0,188.7,0,197,0z M192.7,12.1  c0-0.6,0-1.2,0-1.8c0-1.1,0-2.2,0-3.2c0-0.7-0.5-1.2-1.2-1.2c-4.7,0-9.3,0-14,0c-0.1,0-0.3,0-0.4,0.1c-0.5,0.2-0.8,0.6-0.8,1.2  c0,1.6,0,3.2,0,4.8c0,0.1,0,0.1,0,0.2C181.8,12.1,187.2,12.1,192.7,12.1z"></path>	<path d="M126.9,0c0.4,0,0.7,0.1,1.1,0.1c1,0.1,1.9,0.4,2.8,0.9c1.2,0.8,1.9,1.9,2.2,3.3c0.2,0.8,0.3,1.5,0.2,2.3c0,1,0,2.1-0.1,3.1  c0,0.5-0.1,1-0.3,1.5c-0.4,1.4-1.4,2.2-2.8,2.6c-0.3,0.1-0.6,0.2-0.9,0.3c0,0,0,0,0,0c0.2,0,0.4,0.1,0.6,0.1  c0.4,0.1,0.8,0.2,1.2,0.4c1.1,0.5,1.7,1.5,1.9,2.6c0.1,0.6,0.2,1.2,0.2,1.8c0,1.3,0,2.6,0,3.9c0,0.1,0,0.1,0,0.2  c-2.4,0-4.8,0-7.2,0c0-0.1,0-0.1,0-0.2c0-1,0-2,0-3.1c0-0.3-0.1-0.7-0.1-1c-0.2-1-0.8-1.6-1.9-1.7c-0.3,0-0.5,0-0.8,0  c-3.8,0-7.7,0-11.5,0c-0.1,0-0.2,0-0.3,0c0,2,0,4,0,6.1c-2.4,0-4.8,0-7.2,0c0-0.1,0-0.1,0-0.2c0-7.7,0-15.3,0-23c0-0.1,0-0.1,0-0.2  C111.7,0,119.3,0,126.9,0z M111.3,11.5c0.1,0,0.2,0,0.3,0c4,0,8,0,12.1,0c0.2,0,0.5,0,0.7,0c1.1-0.1,1.7-0.7,1.9-1.8  c0.1-0.7,0.1-1.4,0-2c-0.1-1-0.6-1.5-1.6-1.7c-0.5-0.1-1-0.1-1.5-0.1c-3.9,0-7.7,0-11.6,0c-0.1,0-0.1,0-0.2,0  C111.3,7.7,111.3,9.6,111.3,11.5z"></path>	<path d="M71.7,0c0,1.7,0,3.4,0,5.2c0,0.1-0.1,0.2-0.2,0.3c-3.5,2.5-7,4.9-10.5,7.4c-2.4,1.7-4.8,3.3-7.1,5c0,0-0.1,0.1-0.1,0.1  c6,0,12,0,17.9,0c0,1.8,0,3.6,0,5.4c-9.4,0-18.8,0-28.3,0c0-0.1,0-0.1,0-0.2c0-1.7,0-3.4,0-5c0-0.1,0-0.2,0.2-0.3  c5.8-4.1,11.5-8.2,17.3-12.4c0.1,0,0.1-0.1,0.2-0.2c-5.8,0-11.5,0-17.2,0c0-1.8,0-3.6,0-5.3C53.2,0,62.4,0,71.7,0z"></path>	<path d="M100.6,0c0,1.7,0,3.5,0,5.2c-6.3,0-12.6,0-18.9,0c0,1.4,0,2.8,0,4.2c5.9,0,11.8,0,17.7,0c0,1.5,0,2.9,0,4.4  c-5.9,0-11.8,0-17.7,0c0,1.5,0,3,0,4.5c6.3,0,12.6,0,18.9,0c0,1.7,0,3.4,0,5.1c-8.5,0-17.1,0-25.7,0c0-0.1,0-0.1,0-0.2  c0-7.7,0-15.3,0-23c0-0.1,0-0.1,0-0.2C83.5,0,92.1,0,100.6,0z"></path>	<path d="M39.9,0c0,0.1,0,0.2,0,0.2c0,7.6,0,15.2,0,22.9c0,0.1,0,0.2,0,0.3c-2.4,0-4.8,0-7.2,0c0-0.1,0-0.1,0-0.2  c0-7.6,0-15.3,0-22.9c0-0.1,0-0.1,0-0.2C35.1,0,37.5,0,39.9,0z"></path></g></svg>