<svg xmlns="http://www.w3.org/2000/svg" xmlns:xlink="http://www.w3.org/1999/xlink" id="Capa_1" x="0px" y="0px" width="151px" height="112px" viewBox="0 0 151 112" xml:space="preserve"><g>	<g>		<path d="M122.9,88h-2.1v5.1h-3v1.7h3v11.6c0,1.5,0.3,2.4,0.8,3c0.6,0.6,1.5,0.8,2.9,0.8c0.2,0,0.5,0,0.9,0c0.4,0,0.7,0,0.9,0v-1.8   c-0.8,0.1-1.4,0.1-1.8,0.1c-0.7-0.1-1.2-0.3-1.4-0.7c-0.2-0.3-0.3-0.8-0.3-1.5V94.8h3.5v-1.7h-3.5V88z"></path>		<path d="M110.5,92.6c-1.2,0-2.3,0.3-3.4,1c-1,0.6-1.7,1.5-2.1,2.5H105v-2.9h-2.1V110h2.1v-9.9c0-1.7,0.5-3.1,1.5-4.2   c1-1.1,2.3-1.6,3.9-1.6c2.9,0,4.3,1.7,4.3,5.1V110h2.1V99.1c0-2.1-0.4-3.7-1.3-4.8C114.4,93.2,112.8,92.6,110.5,92.6z"></path>		<rect x="97.9" y="86.6" width="2.1" height="3.3"></rect>		<polygon points="97.9,110 97.9,110.1 100,110.1 100,93.1 97.9,93.1   "></polygon>		<rect x="129.6" y="106.5" width="2.8" height="3.5"></rect>		<polygon points="6.7,99.8 14.6,99.8 14.6,96 6.7,96 6.7,90.4 15,90.4 15,86.6 1.9,86.6 1.9,110 15.4,110 15.4,106.2 6.7,106.2      "></polygon>		<path d="M30.9,106.6v-9.3c0-0.8-0.1-1.5-0.3-2.2c-0.1-0.7-0.5-1.3-0.9-1.7c-0.5-0.5-1.1-0.9-1.9-1.1c-0.8-0.3-1.9-0.4-3.3-0.4   c-0.8,0-1.7,0.1-2.4,0.3c-0.7,0.2-1.4,0.5-2,0.9c-0.6,0.4-1,1-1.3,1.7c-0.3,0.7-0.5,1.5-0.5,2.6v0.4v0h4v-0.5   c0-0.7,0.2-1.2,0.5-1.7c0.3-0.4,0.9-0.6,1.6-0.6c0.8,0,1.3,0.2,1.6,0.6c0.3,0.4,0.5,0.9,0.5,1.6c0,0.6-0.1,1-0.4,1.3   c-0.3,0.3-0.7,0.5-1.4,0.7l-2.6,0.7c-0.8,0.2-1.5,0.5-2,0.8c-0.6,0.3-1,0.6-1.4,1.1c-0.3,0.4-0.6,0.9-0.8,1.5   c-0.2,0.6-0.3,1.3-0.3,2.1c0,0.6,0.1,1.2,0.2,1.8c0.1,0.6,0.4,1.1,0.7,1.6c0.3,0.5,0.8,0.9,1.3,1.2c0.6,0.3,1.2,0.4,2,0.4   c1.1,0,2-0.1,2.7-0.4c0.7-0.3,1.3-0.9,1.8-1.8h0.1c0.1,0.3,0.1,0.6,0.2,1c0.1,0.3,0.2,0.6,0.4,0.9h4.3c-0.2-0.5-0.4-1-0.5-1.5   C30.9,108.1,30.9,107.5,30.9,106.6z M26.5,104.7c0,0.5-0.1,0.9-0.3,1.2c-0.2,0.4-0.4,0.6-0.7,0.9c-0.3,0.2-0.6,0.4-0.9,0.5   c-0.3,0.1-0.6,0.1-1,0.1c-0.6,0-1.1-0.2-1.3-0.7c-0.3-0.5-0.4-1.1-0.4-1.7c0-0.8,0.2-1.4,0.6-1.9c0.4-0.5,1-0.8,2-1   c0.3-0.1,0.6-0.2,1-0.3c0.3-0.1,0.7-0.3,1-0.6V104.7z"></path>		<path d="M87.8,92.6c-2.5,0-4.5,0.9-6,2.7c-1.4,1.7-2.1,3.8-2.1,6.3c0,2.6,0.7,4.6,2.1,6.3c1.5,1.8,3.5,2.7,6,2.7   c2.5,0,4.5-0.9,6-2.7c1.4-1.7,2.1-3.8,2.1-6.3c0-2.6-0.7-4.6-2.1-6.3C92.2,93.5,90.3,92.6,87.8,92.6z M92.2,106.5   c-1.1,1.5-2.6,2.3-4.5,2.3c-1.9,0-3.4-0.8-4.5-2.3c-1-1.4-1.5-3-1.5-5c0-1.9,0.5-3.6,1.5-5c1.1-1.5,2.6-2.3,4.5-2.3   c1.9,0,3.4,0.8,4.5,2.3c1,1.4,1.5,3,1.5,5C93.7,103.5,93.2,105.2,92.2,106.5z"></path>		<path d="M43.2,99.9l-2.7-0.9c-0.8-0.2-1.3-0.5-1.6-0.9c-0.3-0.3-0.4-0.7-0.4-1.2c0-0.6,0.2-1.1,0.6-1.4c0.4-0.3,0.9-0.5,1.5-0.5   c0.7,0,1.2,0.2,1.5,0.7c0.3,0.4,0.5,1.1,0.5,2h4.1v-0.7c0-1.6-0.5-2.8-1.5-3.7s-2.5-1.3-4.6-1.3c-1.2,0-2.2,0.1-3,0.4   c-0.8,0.3-1.5,0.7-2,1.2c-0.5,0.5-0.9,1-1.2,1.7c-0.2,0.6-0.4,1.3-0.4,2c0,1.2,0.3,2.3,1,3.1c0.6,0.8,1.6,1.4,2.8,1.8l3.2,1.2   c0.4,0.2,0.8,0.4,1.2,0.7c0.3,0.3,0.5,0.7,0.5,1.3c0,0.7-0.2,1.2-0.6,1.6c-0.4,0.3-1,0.5-1.7,0.5c-0.8,0-1.4-0.2-1.8-0.7   c-0.4-0.5-0.6-1.1-0.6-1.9v-0.6v0H34v0.6c0,0.8,0.1,1.6,0.3,2.3c0.2,0.7,0.5,1.3,1,1.7c0.5,0.5,1.2,0.8,2,1.1   c0.9,0.2,1.9,0.4,3.2,0.4c1,0,1.8-0.1,2.6-0.3c0.8-0.2,1.5-0.5,2.1-1c0.6-0.5,1-1,1.4-1.7c0.3-0.7,0.5-1.5,0.5-2.5   c0-1.3-0.3-2.4-0.9-3.2C45.6,101,44.6,100.3,43.2,99.9z"></path>		<path d="M57.2,106.9c-0.7,0-1.1-0.1-1.3-0.4c-0.2-0.3-0.3-0.8-0.3-1.5v-9.6h2.6v-3.1h-2.6v-5.1H51v5h-2.3v3.1H51v10.1   c0,0.9,0.1,1.7,0.2,2.2c0.1,0.6,0.3,1.1,0.6,1.5c0.3,0.3,0.7,0.6,1.3,0.7c0.6,0.1,1.3,0.2,2.2,0.2c0.5,0,1,0,1.5-0.1   c0.5,0,1,0,1.5,0v-3.2c-0.2,0-0.3,0.1-0.5,0.1C57.5,106.9,57.3,106.9,57.2,106.9z"></path>		<path d="M71.7,86.6H61.3V110v0h2.2V100h8.2c2.1,0,3.8-0.6,5.1-1.8c1.3-1.2,1.9-2.8,1.9-4.9s-0.6-3.8-1.9-4.9   C75.5,87.2,73.8,86.6,71.7,86.6z M75,96.9c-1,0.8-2.2,1.2-3.8,1.2h-7.7v-9.6h7.7c1.6,0,2.9,0.4,3.8,1.2c1,0.9,1.5,2.1,1.5,3.6   S75.9,96,75,96.9z"></path>	</g>	<path d="M149.4,12.9c-1.2-3.5-3.3-6.3-6.4-8.2c-3.7-2.4-8-3.2-12.3-3.2c-42.6,0-85.2,0-127.8,0c-0.8,0-1,0.2-1,1  c0,4.5,0,8.9,0,13.4c0,1.6,0,1.6,1.5,1.6c38,0,76,0,114.1,0c3.9,0,7.8,0,11.8,0c1.1,0,2.2,0.1,3.3,0.6c2.6,1.1,3.2,5.7,1.5,8.2  c-1.1,1.6-2.8,1.9-4.6,1.9c-15.5,0-31,0-46.5,0c-0.7,0-1.2,0-1.2,1c0,13.5,0,27,0,40.6c0,0.8,0.2,1,1,1c4.6,0,9.2-0.1,13.8,0  c1,0,1.3-0.2,1.3-1.2c-0.1-8.1,0-16.1-0.1-24.2c0-1,0.3-1.2,1.3-1.2c10.1,0,20.2,0,30.4,0c2.1,0,4.3,0,6.4-0.5c1.3-0.3,2.7-0.7,4-1  c0.8,0,1.6-0.3,2.3-0.7c0.8-0.4,1.5-1,2.2-1.5c0.8-0.4,1.4-1.2,2-1.9c1-1.2,2.1-2.3,2.4-3.9c0.4-1.2,1-2.4,1.2-3.7  C151.4,24.8,151.5,18.8,149.4,12.9z"></path>	<path d="M3.5,28.1c-0.8,0-1.5,0.7-1.5,1.5v0.2V42v15.2v11v0.8c0,1,0.8,1.8,1.8,1.8h66.1c1,0,1.8-0.8,1.8-1.8V57.2  c0-1-0.8-1.8-1.8-1.8H17.2V43.7h52.5c1,0,1.8-0.8,1.8-1.8V29.9c0-1-0.8-1.8-1.8-1.8H15.7h-12H3.5z"></path>	<rect x="61.7" y="22.1" width="2.6" height="1"></rect>	<rect x="51.4" y="22.1" width="2.6" height="1"></rect>	<rect x="15.6" y="22.1" width="2.6" height="1"></rect>	<rect x="10.5" y="22.1" width="2.6" height="1"></rect>	<rect x="46.3" y="22.1" width="2.6" height="1"></rect>	<rect x="5.4" y="22.1" width="2.6" height="1"></rect>	<rect x="20.7" y="22.1" width="2.6" height="1"></rect>	<rect x="36.1" y="22.1" width="2.6" height="1"></rect>	<rect x="41.2" y="22.1" width="2.6" height="1"></rect>	<rect x="31" y="22.1" width="2.6" height="1"></rect>	<rect x="25.8" y="22.1" width="2.6" height="1"></rect>	<rect x="56.6" y="22.1" width="2.6" height="1"></rect>	<rect x="102.6" y="22.1" width="2.6" height="1"></rect>	<rect x="118" y="22.1" width="2.6" height="1"></rect>	<rect x="107.8" y="22.1" width="2.6" height="1"></rect>	<rect x="112.9" y="22.1" width="2.6" height="1"></rect>	<rect x="128.2" y="22.1" width="2.5" height="1"></rect>	<rect x="123.1" y="22.1" width="2.6" height="1"></rect>	<rect x="77" y="22.1" width="2.6" height="1"></rect>	<rect x="66.8" y="22.1" width="2.6" height="1"></rect>	<rect x="71.9" y="22.1" width="2.6" height="1"></rect>	<rect x="82.2" y="22.1" width="2.6" height="1"></rect>	<rect x="87.3" y="22.1" width="2.6" height="1"></rect>	<rect x="97.5" y="22.1" width="2.6" height="1"></rect>	<rect x="92.4" y="22.1" width="2.6" height="1"></rect></g></svg>