<svg xmlns="http://www.w3.org/2000/svg" xmlns:xlink="http://www.w3.org/1999/xlink" id="Capa_1" x="0px" y="0px" width="250px" height="186px" viewBox="0 0 250 186" xml:space="preserve"><g>	<rect width="250" height="15.7"></rect>	<path d="M44,151.3c19.6,5.5,43.2,2.3,60.9-8.5c0.3-0.2,0.5-0.5,0.5-0.8V90.5c0-0.4-0.2-0.6-0.5-0.6H60.2c-0.4,0-0.6,0.2-0.6,0.6  V106c0,0.2,0.2,0.4,0.4,0.4h27.7c0.2,0,0.4,0.2,0.4,0.4v25.7c0,0.4-0.2,0.7-0.5,0.8c-8.8,4-18.8,5-28.3,4.2  c-25.1-2.1-41-22.1-39.8-46.8C20.6,65.1,38.7,49.5,64,49.4c11.8-0.1,22.6,1.9,32.5,5.9c0.1,0,0.1,0,0.2,0c0.3,0,0.5-0.2,0.5-0.4  V38.9c0-0.3-0.2-0.6-0.5-0.7c-14.7-5-29.4-6.4-44-4.1c-30,4.6-51,26.2-52.6,57.2v4.9C1.4,123.1,18.3,144.1,44,151.3z"></path>	<path d="M148.2,150.9h3.3c0.5,0,0.8-0.2,1-0.7l27.6-62.1c0-0.1,0.1-0.1,0.1-0.1c0.1-0.1,0.3,0,0.4,0.1l28.7,62.3  c0.1,0.3,0.4,0.4,0.7,0.4h3.7c0.4,0,0.7-0.2,0.8-0.6l35.4-113.5c0,0,0-0.1,0-0.1c0-0.2-0.1-0.3-0.3-0.3l-16.3,0  c-0.4,0-0.6,0.2-0.7,0.5L210,111.2c-0.2,0.7-0.5,0.7-0.8,0l-25.8-56.2c-0.3-0.6-0.7-1-1.2-1.2c-1.3-0.6-2.7,0-3.3,1.3L153,112  c0,0.1-0.1,0.1-0.2,0.1c-0.1,0-0.3,0-0.3-0.2L130,37c-0.1-0.4-0.4-0.6-0.8-0.6l-17.3,0c0,0-0.1,0-0.1,0c-0.1,0-0.2,0.2-0.2,0.3  l35.5,113.4C147.4,150.7,147.7,150.9,148.2,150.9z"></path>	<rect y="170.3" width="250" height="15.7"></rect></g></svg>