<svg xmlns="http://www.w3.org/2000/svg" xmlns:xlink="http://www.w3.org/1999/xlink" id="Capa_1" x="0px" y="0px" width="303px" height="92px" viewBox="0 0 303 92" xml:space="preserve"><g>	<g>		<path d="M40,84.9h-1c0,0-0.1,0-0.1,0.1l-0.5,3.5c0,0.2-0.1,0.2-0.1,0l-0.5-3.5c0,0,0,0-0.1,0h-0.9c0,0-0.1,0,0,0.1l1,5.8   c0,0.1,0,0.1,0.1,0.1h1c0.1,0,0.1,0,0.1-0.1L40,84.9C40,84.9,40,84.9,40,84.9C40,84.9,40,84.9,40,84.9z"></path>		<path d="M47.2,84.9l-2.3,0c0,0-0.1,0-0.1,0.1v5.9c0,0,0,0.1,0.1,0.1l2.3,0c0,0,0.1,0,0.1-0.1v-0.9c0,0,0-0.1-0.1-0.1l-1.3,0h0   c0,0-0.1,0-0.1-0.1v-1.4c0,0,0,0,0,0c0,0,0-0.1,0.1-0.1l0.7,0c0,0,0,0,0,0c0,0,0.1,0,0.1-0.1v-0.9c0,0,0-0.1-0.1-0.1h-0.7h0   c0,0-0.1,0-0.1-0.1v-1.4c0,0,0,0,0,0c0,0,0-0.1,0.1-0.1l1.3,0c0,0,0.1,0,0.1-0.1L47.2,84.9C47.2,84.9,47.2,84.9,47.2,84.9z"></path>		<path d="M54.9,84.9l-0.9,0c0,0-0.1,0-0.1,0.1l0,2.3c0,0,0,0.1-0.1,0.1h-0.6c0,0-0.1,0-0.1-0.1l0-2.4c0,0,0-0.1-0.1-0.1l-0.9,0   c0,0,0,0,0,0c0,0-0.1,0-0.1,0.1l0,5.9c0,0,0,0.1,0.1,0.1l0.9,0c0,0,0.1,0,0.1-0.1l0-2.4c0,0,0-0.1,0.1-0.1l0.6,0c0,0,0,0,0,0   c0,0,0.1,0,0.1,0.1l0,2.4v0c0,0,0,0.1,0.1,0.1l0.9,0c0,0,0.1,0,0.1-0.1L54.9,84.9C55,84.9,54.9,84.9,54.9,84.9z"></path>		<path d="M60.9,84.9H60c0,0-0.1,0-0.1,0.1v5.9c0,0,0,0.1,0.1,0.1h0.9c0,0,0.1,0,0.1-0.1L60.9,84.9C61,84.9,61,84.9,60.9,84.9z"></path>		<path d="M68.6,89.2h-0.7c-0.1,0-0.2,0.1-0.2,0.2c0,0.1,0,0.2,0,0.3c0,0.1-0.1,0.1-0.1,0.1c-0.1,0-0.2,0-0.3,0   c-0.1,0-0.2-0.1-0.2-0.3l0-3.4c0-0.1,0-0.1,0.1-0.2c0.1-0.2,0.3-0.2,0.5-0.1c0.1,0,0.1,0.1,0.1,0.2c0,0.1,0,0.2,0,0.3c0,0,0,0,0,0   c0,0.1,0.1,0.1,0.1,0.1l0.8,0c0.1,0,0.1,0,0.1-0.1c0.1-1.2-1.1-2-2.1-1.4c-0.4,0.3-0.7,0.6-0.7,1.1c0,1,0,2.1,0,3.2   c0,2.1,2.9,1.9,2.8,0C68.7,89.2,68.7,89.2,68.6,89.2z"></path>		<path d="M75.9,89.9l-1.2,0c0,0-0.1,0-0.1-0.1v-4.9c0,0,0-0.1-0.1-0.1l-0.9,0c0,0-0.1,0-0.1,0.1l0,5.9c0,0,0,0.1,0.1,0.1l2.3,0   c0,0,0.1,0,0.1-0.1L75.9,89.9L75.9,89.9C76,89.9,76,89.9,75.9,89.9z"></path>		<path d="M81.8,85.9C81.8,85.9,81.9,85.9,81.8,85.9l1.4-0.1c0,0,0.1,0,0.1-0.1l0-0.8c0,0,0-0.1-0.1-0.1h-2.3c0,0-0.1,0-0.1,0.1v5.8   v0c0,0,0,0.1,0.1,0.1l2.3,0c0,0,0.1,0,0.1-0.1l0-0.8v0c0,0,0-0.1-0.1-0.1l-1.3,0c0,0,0,0,0,0c0,0-0.1,0-0.1-0.1l0-1.4   c0,0,0-0.1,0.1-0.1l0.7,0c0,0,0.1,0,0.1-0.1l0-0.8c0,0,0-0.1-0.1-0.1l-0.7,0h0c0,0-0.1,0-0.1-0.1L81.8,85.9L81.8,85.9z"></path>		<path d="M106.7,89.3c0-0.4-0.1-0.7-0.4-1c0,0,0-0.1,0-0.1c0.2-0.3,0.3-0.6,0.4-0.9c0-0.9,0.1-1.7-0.8-2.2   c-0.5-0.3-1.2-0.2-1.8-0.2c-0.1,0-0.1,0-0.1,0.1v5.8c0,0,0,0.1,0.1,0.1h0.9c0,0,0.1,0,0.1-0.1l0-1.9c0-0.2,0.1-0.3,0.3-0.2   c0,0,0,0,0.1,0c0.2,0.1,0.3,0.2,0.3,0.4l0,1.6c0,0.1,0,0.1,0.1,0.1l0.9,0c0.1,0,0.1,0,0.1-0.1C106.7,90.3,106.7,89.8,106.7,89.3z    M105.2,87.7L105.2,87.7c-0.1,0-0.2,0-0.2-0.1l0-1.7c0,0,0,0,0,0c0-0.1,0-0.1,0.1-0.1h0.1c0,0,0,0,0,0c0.3,0,0.5,0.2,0.5,0.5   l0,0.9C105.7,87.5,105.5,87.7,105.2,87.7z"></path>		<path d="M113.8,84.9l-1.2,0c0,0-0.1,0-0.1,0.1l-1,5.8c0,0,0,0,0,0c0,0,0,0.1,0.1,0.1l0.9,0c0,0,0.1,0,0.1-0.1l0.1-0.8   c0,0,0-0.1,0.1-0.1l0.9,0c0,0,0.1,0,0.1,0.1l0.1,0.8c0,0,0,0.1,0.1,0.1l0.9,0c0,0,0,0,0,0c0,0,0.1-0.1,0.1-0.1L113.8,84.9   C113.9,84.9,113.9,84.9,113.8,84.9z M113.5,89H113c-0.1,0-0.1,0-0.1-0.1l0.3-2.3c0-0.3,0.1-0.3,0.1,0L113.5,89   C113.6,89,113.5,89,113.5,89z"></path>		<path d="M99.2,84.9l-1,0c0,0,0,0,0,0l-0.4,2.9c-0.1,0.4-0.1,0.4-0.2,0L97.2,85c0-0.1,0-0.1-0.1-0.1l-0.6,0c-0.1,0-0.1,0-0.1,0.1   l-0.4,2.9c0,0.3-0.1,0.3-0.1,0c-0.2-1-0.3-2-0.5-3c0,0,0,0,0,0l-1,0c0,0,0,0,0,0l1,5.8c0,0.1,0.1,0.1,0.1,0.1l0.8,0   c0.1,0,0.1,0,0.1-0.1l0.3-2.7c0-0.2,0.1-0.2,0.1,0l0.3,2.7c0,0.1,0.1,0.1,0.1,0.1l0.8,0c0.1,0,0.1,0,0.1-0.1L99.2,84.9   C99.2,84.9,99.2,84.9,99.2,84.9z"></path>		<path d="M122.5,86.6c0.1-0.9-0.5-1.6-1.3-1.7c-0.4,0-0.8,0-1.3,0c-0.1,0-0.1,0-0.1,0.1v5.8c0,0,0,0.1,0.1,0.1l0.9,0c0,0,0,0,0,0   l0-1.8c0-0.1,0-0.1,0.1-0.1c0.7,0,1.2-0.3,1.4-0.9C122.5,87.6,122.4,87,122.5,86.6z M120.9,87.9L120.9,87.9   C120.8,87.9,120.8,87.9,120.9,87.9l-0.1-2c0,0,0,0,0,0c0,0,0-0.1,0.1-0.1h0c0,0,0,0,0,0c0.3,0,0.5,0.2,0.5,0.5l0,1.1   C121.4,87.7,121.2,87.9,120.9,87.9z"></path>		<path d="M148.7,87.8c0.3-0.4,0.4-0.8,0.4-1.4c-0.1-0.8-0.5-1.2-1.2-1.4c-0.3-0.1-0.7-0.1-1.4,0c-0.1,0-0.1,0-0.1,0.1v5.8   c0,0.1,0,0.1,0.1,0.1c1,0.1,2.2,0.2,2.6-1c0.2-0.8,0.1-1.4-0.3-1.9C148.7,87.9,148.7,87.8,148.7,87.8z M147.4,86   c0-0.1,0.1-0.1,0.1-0.1h0c0.3,0,0.5,0.2,0.5,0.5v0.5c0,0,0,0,0,0c0,0.3-0.2,0.5-0.5,0.5h0c-0.1,0-0.1,0-0.1-0.1L147.4,86   C147.4,86,147.4,86,147.4,86z M148.1,89.3C148.1,89.3,148.1,89.3,148.1,89.3c0,0.3-0.2,0.6-0.5,0.6h0c-0.1,0-0.1-0.1-0.1-0.1   l0-1.3c0-0.1,0.1-0.1,0.1-0.1h0c0.3,0,0.5,0.3,0.5,0.6V89.3z"></path>		<path d="M156.7,89.1c0-0.3-0.1-0.6-0.4-0.8c0,0,0-0.1,0-0.1c0.2-0.3,0.4-0.6,0.4-0.9c0-0.5,0.1-1.1-0.1-1.5   c-0.5-1-1.5-0.9-2.5-0.8c-0.1,0-0.1,0-0.1,0.1v5.9c0,0,0,0,0,0h0.9c0,0,0,0,0,0l0-1.9c0-0.2,0.1-0.3,0.3-0.2c0,0,0.1,0,0.1,0   c0.2,0.1,0.3,0.2,0.3,0.4l0,1.6c0,0.1,0,0.1,0.1,0.1l0.9,0c0.1,0,0.1,0,0.1-0.1C156.7,90.3,156.7,89.7,156.7,89.1z M155.7,87.2   C155.7,87.2,155.7,87.2,155.7,87.2c0,0.3-0.2,0.5-0.6,0.5h-0.1c0,0-0.1,0-0.1-0.1l0-1.7c0,0,0-0.1,0.1-0.1h0.1   c0.3,0,0.5,0.2,0.5,0.5L155.7,87.2z"></path>		<path d="M163.9,84.9h-1.2c0,0-0.1,0-0.1,0.1l-1,5.8c0,0,0,0,0,0c0,0,0,0.1,0.1,0.1l0.9,0c0,0,0.1,0,0.1-0.1l0.1-0.8   c0,0,0-0.1,0.1-0.1h0.9c0,0,0.1,0,0.1,0.1l0.2,0.8c0,0,0,0.1,0.1,0.1l0.9,0c0,0,0,0,0,0c0,0,0.1,0,0.1-0.1L163.9,84.9   C163.9,84.9,163.9,84.9,163.9,84.9z M163.5,89l-0.6,0c0,0,0,0,0,0l0.3-2.5c0-0.1,0-0.1,0.1,0c0,0,0,0.1,0,0.1   C163.4,87.4,163.5,88.2,163.5,89C163.6,89,163.6,89,163.5,89z"></path>		<path d="M173.1,84.9h-0.9c0,0,0,0,0,0c0,0-0.1,0-0.1,0.1c0,1.3,0,2.5,0.1,3.8c0,0,0,0,0,0c0,0,0,0,0,0c0,0,0,0,0,0c0,0,0,0,0,0   c-0.3-1.3-0.7-2.6-0.9-3.8c0-0.1-0.1-0.1-0.1-0.1h-1.2c-0.1,0-0.1,0-0.1,0.1l0,5.9c0,0,0,0,0,0l0.9,0c0.1,0,0.1,0,0.1-0.1l0-3.5   c0-0.2,0-0.2,0.1,0c0.3,1.2,0.6,2.3,0.8,3.4c0,0.1,0.1,0.1,0.2,0.1h1.2c0.1,0,0.1,0,0.1-0.1L173.1,84.9   C173.1,84.9,173.1,84.9,173.1,84.9z"></path>		<path d="M179.6,84.9l-1.4,0c0,0-0.1,0-0.1,0.1l0,5.8c0,0,0,0.1,0.1,0.1l1.4,0c0,0,0,0,0,0c0.8,0,1.4-0.6,1.4-1.4l0-3.2   C181,85.5,180.3,84.9,179.6,84.9z M179.9,89.5c0,0.2-0.2,0.4-0.4,0.4h-0.3c-0.1,0-0.1,0-0.1-0.1V86c0-0.1,0-0.1,0.1-0.1h0.3   c0.2,0,0.4,0.2,0.4,0.4V89.5z"></path>		<path d="M206.3,84.9l-1.4,0c0,0-0.1,0-0.1,0.1l0,5.8c0,0,0,0.1,0.1,0.1l1.4,0c0,0,0,0,0,0c0.8,0,1.4-0.6,1.4-1.4l0-3.1   C207.7,85.5,207.1,84.9,206.3,84.9z M206.7,89.5c0,0.2-0.2,0.4-0.4,0.4H206c0,0-0.1,0-0.1-0.1v-3.9c0,0,0-0.1,0.1-0.1h0.3   c0.2,0,0.4,0.2,0.4,0.4V89.5z"></path>		<path d="M213.7,85.9l1.2,0c0,0,0.1,0,0.1-0.1l0-0.8c0,0,0-0.1-0.1-0.1h-2.3c0,0,0,0,0,0c0,0-0.1,0-0.1,0.1v5.8c0,0,0,0,0,0   c0,0,0,0.1,0.1,0.1h2.3c0,0,0.1,0,0.1-0.1l0-0.8c0,0,0-0.1-0.1-0.1l-1.3,0c0,0-0.1,0-0.1-0.1l0-1.4c0,0,0,0,0,0c0,0,0-0.1,0.1-0.1   l0.7,0c0,0,0,0,0,0c0,0,0.1,0,0.1-0.1l0-0.8c0,0,0-0.1-0.1-0.1l-0.7,0c0,0-0.1,0-0.1-0.1L213.7,85.9   C213.6,85.9,213.7,85.9,213.7,85.9z"></path>		<path d="M221.2,87.2c-0.3-0.3-0.5-0.7-0.3-1.1c0.1-0.2,0.2-0.2,0.4-0.2c0.1,0,0.2,0.1,0.2,0.2c0.1,0.2,0.1,0.5,0,0.7c0,0,0,0,0,0   l0.9,0c0,0,0.1,0,0.1-0.1c0.1-0.5,0-0.9-0.1-1.2c-0.6-1.2-2.3-0.8-2.5,0.4c-0.2,1.4,0.7,1.8,1.5,2.7c0.2,0.2,0.2,0.6,0.2,0.9   c0,0.1-0.2,0.2-0.3,0.2c-0.4,0-0.3-0.5-0.3-0.8c0-0.1,0-0.2-0.2-0.2l-0.7,0c-0.1,0-0.1,0-0.1,0.1c0,0.4,0,0.8,0.1,1   c0.5,1.3,2.5,1,2.6-0.5C222.6,88.3,222,87.9,221.2,87.2z"></path>		<path d="M228.4,84.9h-0.9c0,0-0.1,0-0.1,0.1v5.9c0,0,0,0.1,0.1,0.1h0.9c0,0,0.1,0,0.1-0.1L228.4,84.9   C228.5,84.9,228.4,84.9,228.4,84.9z"></path>		<path d="M236.2,87.7c0-0.1,0-0.1-0.1-0.1l-1.3,0c-0.1,0-0.1,0-0.1,0.1l0,0.8c0,0.1,0,0.1,0.1,0.1l0.3,0c0,0,0,0,0,0   c0.1,0,0.1,0.1,0.1,0.1v0.7c0,0.3-0.1,0.4-0.4,0.4c0,0-0.1,0-0.1,0c-0.2,0-0.3-0.2-0.3-0.3l0-3.3c0-0.2,0.1-0.3,0.3-0.4   c0,0,0.1,0,0.1,0c0.2,0,0.3,0.2,0.3,0.4c0,0.2,0,0.3,0.1,0.3c0.3,0,0.5,0,0.8,0c0.1,0,0.1,0,0.1-0.1c0.1-1.3-1.1-2.1-2.2-1.4   c-0.4,0.3-0.6,0.6-0.6,1.1c0,1,0,2.1,0,3.2c0,2.1,2.8,2,2.8,0.1C236.2,88.8,236.2,88.3,236.2,87.7z"></path>		<path d="M244.4,84.9h-0.9c-0.1,0-0.1,0-0.1,0.1c0,1.3,0.1,2.5,0,3.8c0,0,0,0,0,0c0,0,0,0,0,0c0,0,0,0,0,0l-0.9-3.8   c0-0.1-0.1-0.1-0.1-0.1h-1.2c-0.1,0-0.1,0-0.1,0.1l0,5.8c0,0.1,0,0.1,0.1,0.1l0.9,0c0.1,0,0.1,0,0.1-0.1l0-3.3c0-0.3,0-0.3,0.1,0   l0.8,3.3c0,0.1,0.1,0.1,0.1,0.1l1.2,0c0.1,0,0.1,0,0.1-0.1L244.4,84.9C244.5,84.9,244.5,84.9,244.4,84.9z"></path>		<path d="M133.9,85.3C133.9,85.2,133.9,85.2,133.9,85.3l-1.5,0c0,0,0,0,0,0c0,0,0,0.1,0,0.1l2,2.5c0,0,0,0.1,0,0.1l-2.1,2.5   c0,0,0,0,0,0c0,0,0,0.1,0.1,0.1h1.5c0,0,0,0,0,0l2.1-2.6c0,0,0-0.1,0-0.1L133.9,85.3z"></path>		<path d="M192.9,85.6C192.9,85.6,192.9,85.6,192.9,85.6l-1.5,0c0,0,0,0,0,0c0,0,0,0.1,0,0.1l2,2.5c0,0,0,0.1,0,0.1l-2,2.5   c0,0,0,0,0,0c0,0,0,0.1,0.1,0.1l1.4,0c0,0,0,0,0,0l2.1-2.6c0,0,0-0.1,0-0.1L192.9,85.6z"></path>		<path d="M133.5,87.8l-1.3-1.7c0,0,0,0,0,0h-0.9c0,0,0,0,0,0c0,0,0,0.1,0,0.1l1.3,1.6c0,0,0,0,0,0.1l-1.3,1.6c0,0,0,0,0,0   c0,0,0,0.1,0.1,0.1l0.9,0c0,0,0,0,0,0L133.5,87.8C133.5,87.9,133.5,87.9,133.5,87.8z"></path>		<path d="M192.5,88.2l-1.3-1.7c0,0,0,0,0,0l-0.9,0c0,0,0,0,0,0c0,0,0,0.1,0,0.1l1.3,1.6c0,0,0,0.1,0,0.1l-1.3,1.6c0,0,0,0,0,0   c0,0,0,0.1,0.1,0.1l0.9,0c0,0,0,0,0,0L192.5,88.2C192.5,88.2,192.5,88.2,192.5,88.2z"></path>	</g>	<g>		<path d="M292,10L292,10c2.4,0,4.4-2,4.4-4.4c0,0,0,0,0,0c0-2.4-2-4.4-4.4-4.4c-2.4,0-4.4,2-4.4,4.4C287.5,8,289.5,10,292,10z    M292,1.8c2.1,0,3.7,1.7,3.7,3.7S294,9.3,292,9.3c-2.1,0-3.7-1.7-3.7-3.7S289.9,1.8,292,1.8z"></path>		<path d="M290.7,7.6l0.5,0c0.1,0,0.1,0,0.1-0.1V6.2c0-0.1,0-0.1,0.1-0.1l0.6,0c0.1,0,0.1,0,0.2,0.1l0.8,1.3c0,0,0.1,0.1,0.1,0.1   l0.5,0c0.1,0,0.1,0,0.1-0.1l-0.9-1.3c0,0,0,0,0,0c0-0.1,0-0.1,0.1-0.1c0.6-0.1,0.9-0.5,0.9-1c0.1-1.1-0.6-1.5-1.6-1.5   c-0.5,0-1,0-1.5,0c0,0,0,0,0,0c-0.1,0-0.1,0.1-0.1,0.1L290.7,7.6C290.6,7.6,290.6,7.6,290.7,7.6z M291.3,4.2c0-0.1,0-0.1,0.1-0.1   l1,0c0,0,0,0,0,0c0.5,0,0.8,0.3,0.8,0.6v0.2c0,0.3-0.4,0.6-0.8,0.6l-1,0c-0.1,0-0.1,0-0.1-0.1L291.3,4.2z"></path>	</g>	<g>		<g>			<path d="M87.4,12.6l2,10.2l1.3,6.6c0.1,0.2,0.2,0.4,0.4,0.4c2.4,0,4.9,0,7.4,0l3,0c0.2,0,0.5-0.1,0.7-0.2l1.6-1.3l1.9-1.5    l4.1-3.3l0.3-0.3l4.1-3.2l1.6-1.3l8.9-7c1.3-1,2.7-2.1,4-3.1c0.1-0.1,0.2-0.2,0.2-0.3c0-0.1,0-0.1-0.1-0.1l-4.1,0l-5.4,0h-1.9    c-0.1,0-0.1,0-0.2,0.1l-7.8,6.3l-8.6,6.8c0,0,0,0,0,0c0,0-0.1,0-0.1,0l-0.5-2.7L98.3,8.4c0-0.1,0-0.1-0.1-0.1l-6.7,0l-4.8,0    c-0.1,0-0.2,0.1-0.1,0.2L87.4,12.6z"></path>			<path d="M128.3,13.4l-8.7,16.3c0,0,0,0,0,0c0,0,0,0.1,0.1,0.1l6.9,0l0.5,0l3.6,0c0.2,0,0.4-0.1,0.5-0.3l2.7-5.1l2.4-4.5    c1.1-2.1,2.3-4.3,3.5-6.6c0.9-1.6,1.7-3.3,2.5-4.9c0-0.1,0-0.1-0.1-0.1h-11.2c-0.1,0-0.1,0-0.1,0.1l-2.5,4.8L128.3,13.4z"></path>			<path d="M218.6,29.7C218.6,29.7,218.6,29.7,218.6,29.7c0,0.1,0,0.1,0.1,0.1l11.2,0c0.1,0,0.2,0,0.2-0.1c2.4-4.4,4.8-8.8,7-13.2    c0.4-0.9,1.2-1.4,2.1-1.6c0.4-0.1,0.9-0.1,1.7,0l14,0c0.1,0,0.1,0,0.1,0.1c-0.2,0.5-0.4,0.9-0.7,1.2c-0.6,0.6-1.7,0.3-2.5,0.3    c-3.5,0-7.1,0-10.7,0c-0.6-0.1-1.1,0-1.5,0c-0.7,0.1-1.2,0.6-1.6,1.3c-0.8,1.7-1.7,3.4-2.6,5c0,0,0,0,0,0c0,0,0,0.1,0.1,0.1    l5.6,0h9.7c0,0,0,0,0,0c0,0,0,0,0,0.1l-1.5,2.8l-2.1,3.9c0,0,0,0,0,0c0,0,0,0.1,0.1,0.1l8,0l1.3,0h1.9c0.1,0,0.3-0.1,0.3-0.2    l0.7-1.4c2.4-4.6,4.9-9.2,7.3-13.8c0.4-0.8,0.7-1.4,0.8-1.8c0.4-1.6,0-3.2-1.6-4.1c-0.2-0.2-0.3-0.3-0.4-0.3c-1.6,0-3.2,0-4.8,0    h-0.4l-8.6,0l-4.7,0l-6,0l-5.1,0l-0.7,0c-3.1,0.5-5.7,2.2-7.5,4.7c-0.5,0.6-0.9,1.3-1.3,2.1C223.8,19.9,221.2,24.8,218.6,29.7z"></path>			<path d="M180,29.4c0.4,0.2,0.8,0.3,1.2,0.4c0.8,0.1,1.8,0.1,3,0.1c7.8,0,15.7,0,23.5,0c1.9,0,3,0,3.5-0.1    c3.2-0.4,5.9-2.4,7.6-5.2c1-1.6,1.9-3.3,2.9-5.1c1.5-2.8,2.9-5.6,4.4-8.5l1.2-2.6c0-0.1,0-0.1-0.1-0.1l-7.2,0l-4.1,0    c-0.1,0-0.1,0-0.1,0.1l-0.2,0.4c-0.1,0.1-0.1,0.1-0.1,0.2L208,23.2c-0.1,0.1-0.2,0.2-0.3,0.2l-4.4,0l-12.3,0c0,0,0,0,0,0    c0,0,0-0.1,0-0.1l4.7-8.8l3.2-6.2c0-0.1,0-0.1,0-0.1l-3.5,0l-7.8,0c-0.1,0-0.1,0-0.1,0.1c-0.2,0.5-0.5,0.9-0.7,1.4    c-2.6,4.9-5.2,9.8-7.8,14.7C178,26.2,177.9,28.3,180,29.4z"></path>			<path d="M141.4,21.6c0.6,0.3,1.3,0.4,1.9,0.4c2.7,0,6.6,0,11.8,0l11.2,0c0.1,0,0.2,0.1,0.1,0.2c-0.2,0.3-0.4,0.7-0.6,1.1    c-0.1,0.1-0.2,0.2-0.3,0.2l-27.3,0c-0.2,0-0.4,0.1-0.5,0.3l-3.2,6c0,0,0,0,0,0c0,0,0,0.1,0.1,0.1c0.2,0,0.3,0,0.5,0    c9.2,0,18,0,26.4,0c1.4,0,2.9,0.1,4.3,0.2c3.2,0.2,6-0.8,8.3-2.9c2.2-1.9,3.8-4.9,4.4-7.6c0.6-2.6-1.3-3.4-3.4-3.4    c-6.9,0-13.8,0-20.8,0l-2,0c0,0-0.1,0-0.1-0.1c0.2-0.9,0.7-1.4,1.7-1.4c7.4,0,14.3,0,20.7,0c1.2,0,2.4,0,3.5,0.1    c1.9,0.1,3-0.4,3.8-2.2c0.6-1.4,1.2-2.8,2-4.2c0,0,0,0,0,0c0,0,0-0.1-0.1-0.1l-13.9,0l-8.7,0l-5.5,0c-1.3,0-2.5,0-3.8,0    c-1.2,0-2.3,0.2-3.5,0.5c-1.6,0.5-3.1,1.4-4.4,2.7c-1.9,1.8-3.1,4-3.7,6.5C140,19.2,140,20.9,141.4,21.6z"></path>			<path d="M301.3,23.4C301.2,23.4,301.2,23.4,301.3,23.4l-18.3,0l-6.9,0c0,0,0,0,0,0c0,0-0.1-0.1,0-0.1l5.7-10.8l2.1-4.2    c0,0,0-0.1,0-0.1l-9.4,0l-1.9,0c-0.1,0-0.1,0-0.1,0.1l-3.1,5.9c-2,3.6-3.9,7.2-5.7,10.8c-0.1,0.2-0.2,0.5-0.2,0.9    c-0.1,0.7,0,1.4,0.3,2.2c0.3,0.6,0.7,1.1,1.2,1.3c0.3,0.2,0.9,0.3,1.6,0.3c1,0,2,0,3,0l1.5,0l26.9,0c0.2,0,0.4-0.1,0.5-0.3    c1-1.9,2-3.8,3-5.7C301.6,23.6,301.5,23.5,301.3,23.4z"></path>		</g>		<g>			<path d="M31.5,29.6C31.5,29.6,31.5,29.7,31.5,29.6c3.4,0.1,6.8,0.1,10.2,0.1c0.7,0,1.3-0.1,1.6-0.7c2-3.8,4.1-7.7,6.2-11.6    c0,0,0,0,0,0c0,0,0.1,0,0.1,0c3,3.9,6.1,7.8,9.2,11.9c0.3,0.3,0.6,0.5,1,0.5c4.4,0,8.9,0,13.4,0c0.3,0,0.5-0.1,0.6-0.4l11-20.6    c0,0,0-0.1,0-0.1c0-0.2-0.1-0.3-0.3-0.3c-3.2,0-6.4,0-9.5,0c-1,0-1.7,0.4-2.1,1.2c-1.9,3.7-3.9,7.5-6,11.3c0,0,0,0,0,0    c0,0-0.1,0-0.1,0L57.3,8.6c-0.1-0.2-0.4-0.3-0.6-0.3c-4,0-8,0-12,0c-1.1,0-1.9,0-2.4,0.9C38.7,16,35.1,22.8,31.5,29.6    C31.5,29.5,31.5,29.6,31.5,29.6z"></path>			<path d="M17.7,29.6c0,0,0.1,0,0.1,0c3.6,0,7.3,0,10.9,0c0.2,0,0.4-0.1,0.5-0.3c3.7-6.9,7.3-13.8,11-20.6c0.1-0.1,0.1-0.2,0.1-0.3    c0-0.1-0.1-0.2-0.2-0.2l-10.7,0c-0.3,0-0.5,0.1-0.6,0.4L17.6,29.5c0,0,0,0,0,0C17.6,29.5,17.6,29.6,17.7,29.6z"></path>		</g>	</g>	<g>		<path d="M71.5,49.3c0.6-3.4-1.9-4.7-4.8-4.7c-11.8,0-23.6,0-35.4,0c0,0,0,0,0,0c0,0,0,0,0,0c0.6-2.2,1.9-2.1,3.9-2.1   c12.5,0.1,24.9,0.1,37.3,0.1c1.8,0,2.8-0.6,3.5-2.2c0.4-1,0.9-1.9,1.3-2.7c0.9-1.6,1.8-3.3,2.7-4.9c0,0,0,0,0,0c0,0,0-0.1-0.1-0.1   c-17.6,0-35.3,0-53.1,0c-3.8,0-7.2,2-10,4.5c-3.3,3.1-6.2,7.4-6.5,11.9c-0.2,3.3,1.7,4.8,4.8,4.8c11.5,0,23.4,0,35.7,0   c0.1,0,0.1,0,0,0.1c-0.3,0.3-0.5,0.7-0.7,1.2c-0.2,0.4-0.5,0.6-1,0.6c-9.4,0.2-20.6-0.1-28.3,0c-4.3,0-8.5,0.1-12.8,0.3   c-1.3,0-1.9,0.7-2.5,1.9c-1.2,2.4-2.6,5-4.1,7.8c0,0,0,0,0,0c0,0,0,0.1,0.1,0.1c17.1,0,34.1,0,51.2,0c2.4,0,4.2-0.2,6.2-1.1   c5.4-2.3,9.1-6.2,11.3-11.6C70.8,51.9,71.3,50.6,71.5,49.3z"></path>		<path d="M151.4,56.1c0.8-1.5,1.5-3,2.3-4.6c0.8-1.5,1.7-3.1,2.5-4.7c0,0,0,0,0,0c0,0,0-0.1-0.1-0.1c-5.8,0-11.6,0-17.3,0   c-0.6,0-1.1,0.1-1.4,0.6c-1.4,2.7-2.8,5.4-4.3,8.1c-0.1,0.2-0.4,0.4-0.6,0.4c-6.8,0-13.6,0-20.4,0c-0.1,0-0.2,0-0.2,0c0,0,0,0,0,0   c0,0,0-0.1,0-0.1l6.9-12.9c0.1-0.2,0.3-0.3,0.4-0.3l38.9,0c0.3,0,0.6-0.2,0.7-0.4l5-9.2c0-0.1,0-0.1-0.1-0.1   c-0.4,0-0.8-0.1-1.2-0.1c-16.3,0-31.8,0-46.4,0c-1.7,0-2.9,0-3.5,0.1c-3.6,0.4-6.9,2-9.4,4.7c-0.6,0.7-1.3,1.7-2,3   c-3.2,5.5-6.1,11-9.2,17.2c-0.4,0.7-0.7,1.4-0.9,1.9c-0.6,1.4-0.4,3.3,0.7,4.5c1.3,1.5,3,1.8,5.1,1.8c13.6,0,27.1,0,40.6,0   c0.7,0,1.4-0.1,2.1-0.3C144.5,64.1,148.8,60.8,151.4,56.1z"></path>		<path d="M232.6,32.8c0-0.1-0.1-0.2-0.2-0.2l-17.1,0c-0.2,0-0.4,0.1-0.5,0.3l-10,18.7c0,0,0,0,0,0c-0.1,0-0.2,0-0.2,0L190.2,33   c-0.2-0.2-0.4-0.4-0.7-0.4l-22.1,0c-0.2,0-0.5,0.1-0.6,0.3l-17.5,32.7c0,0.1,0,0.1,0.1,0.1c5.7,0,11.3,0,17,0   c0.7,0,1.2-0.2,1.5-0.7c3.3-6.2,6.5-12.3,9.7-18.3c0,0,0,0,0,0c0,0,0.1,0,0.1,0c4.8,6.2,9.6,12.4,14.3,18.5   c0.2,0.3,0.5,0.6,0.9,0.6c6.9,0,14.1,0,21.4,0c0.3,0,0.6-0.2,0.8-0.5L232.6,32.8C232.6,32.9,232.6,32.9,232.6,32.8z"></path>		<path d="M297,32.6c-16.6,0-33.2,0-49.8,0c-1.8,0-2.9,0-3.4,0.1c-2.8,0.4-5.4,1.9-7.5,3.7c-1.6,1.4-3,2.9-4.2,4.6   c-1.9,2.7-3,5.5-2.9,8.7c0.1,3.2,2.3,4,5.1,4c11.1,0,22.7,0,34.7,0c0.1,0,0.1,0,0.1,0.1c-0.4,1.6-1.4,1.9-3,1.9   c-13.2-0.1-26.6-0.1-40.1,0c-0.3,0-0.6,0.2-0.7,0.4c-1.6,3.1-3.2,6-4.7,8.8c-0.1,0.2-0.2,0.4-0.3,0.7c0,0.1,0,0.2,0.1,0.2   c16.6,0,33.8,0,51.6,0c0.9,0,2.1,0,2.9-0.3c6.2-2.3,10.4-7.2,12.8-13.4c0.5-1.4,0.8-2.6,0.7-3.8c-0.2-2.7-2.4-3.7-4.8-3.7   c-11.8,0-23.7,0-35.7,0c-0.1,0-0.1,0-0.1-0.1c0.3-1.4,1.2-2.1,2.6-2c13.5,0.1,27.1,0.1,40.7,0c0.4,0,0.7,0.2,0.9-0.3   C293.7,39.1,295.4,35.9,297,32.6C297.1,32.7,297.1,32.7,297,32.6C297.1,32.7,297,32.6,297,32.6z"></path>		<path d="M102.8,32.7C102.8,32.7,102.8,32.7,102.8,32.7l-18.9-0.1c-0.2,0-0.3,0.1-0.4,0.2L65.9,65.8c0,0,0,0,0,0c0,0,0,0.1,0.1,0.1   c5.3,0,10.6,0,16,0c0.7,0,1.2-0.1,1.8-0.3c0.5-0.1,0.9-0.2,1.4-0.1c0.1,0,0.1,0,0.1,0c0.1-0.1,0.2-0.2,0.2-0.3   C91.3,54.3,97,43.5,102.8,32.7C102.8,32.8,102.8,32.7,102.8,32.7z"></path>	</g></g></svg>