<svg xmlns="http://www.w3.org/2000/svg" xmlns:xlink="http://www.w3.org/1999/xlink" id="Capa_1" x="0px" y="0px" width="195px" height="56px" viewBox="0 0 195 56" style="enable-background:new 0 0 195 56;" xml:space="preserve"><g>	<path d="M68.5,15c0-0.2-0.1-0.4-0.1-0.5c0-0.3-0.1-0.6-0.1-0.9c0-0.1,0-0.1,0-0.2c-0.5-2.2-1.5-4.3-2.9-6c-0.3-0.4-0.6-0.7-0.9-1  c-0.6-0.6-1.3-1.2-2.1-1.7c-2.3-1.5-5-2.4-8-2.4c-0.5,0-0.9,0-1.4,0.1c-2.3,0.2-4.4,1-6.2,2.1c-0.7,0.5-1.4,1-2.1,1.6l-0.7,0.7l0,0  l-8.7,8.7l0,0l0,0l0,0l-8.7-8.7L25.7,6c-2.5-2.4-5.9-3.8-9.7-3.8C12.1,2.2,8.6,3.8,6,6.4C3.4,9,1.8,12.5,1.8,16.4c0,0,0,0,0,0  l1.7,19.8c0,6.5,3.6,11.8,7.6,11.8c3.9,0,6.7-4.7,6.7-11.7c0,0,0,0,0,0l-1.7-13.1c0,0,0,0,0,0c0-2.4,2.9-3.6,4.7-1.9l5.3,5.4  L25.6,27c-0.5,0.7-1,1.4-1.4,2.1c-0.9,1.3-2,3-2.7,4.7l0,0c-0.9,2-1.5,4-1.5,5.9c0,3.2,1,6.1,2.6,8.5c0.5,0.8,1.2,1.5,1.9,2.2  c2.7,2.7,6.5,4.5,10.7,4.5c4.2,0,8-1.7,10.7-4.5c0.7-0.7,1.3-1.4,1.8-2.2c1.6-2.4,2.6-5.4,2.6-8.5c0-3.9-2.5-8.4-5.7-12.8l-0.3-0.5  l0.9-0.9l4.4-4.4c1.7-1.7,4.7-0.5,4.7,1.9l-1.7,12.9C52.2,43.2,55.1,48,59,48c3.9,0,7.8-5.8,7.9-11.9c0,0,0-0.1,0-0.1l1.7-19.5  c0,0,0,0,0,0c0-0.3,0-0.5,0-0.8C68.5,15.4,68.5,15.2,68.5,15z M39.1,48.2c-1,1-2.3,1.6-3.9,1.6c-1.5,0-2.9-0.6-3.9-1.6  c-1-1-1.6-2.3-1.6-3.9c0-1.5,1-3.2,2.2-4.8l0,0c0,0,2.9-3.5,3.2-3.9l0,0l0,0c0.3,0.3,0.6,0.7,0.9,1c1.9,2.2,4.6,5.3,4.6,7.7  C40.7,45.9,40,47.3,39.1,48.2z"></path>	<path d="M192.8,11.6c-0.2-0.2-0.6-0.3-1.1-0.4c-0.5-0.1-1.1-0.1-1.8-0.1c-0.9,0-1.6,0-2,0.1c-0.4,0.1-0.6,0.2-0.8,0.3  c-0.2,0.1-0.3,0.4-0.4,0.9l-4.9,15.4h-0.1l-5.3-15.1c-0.1-0.4-0.2-0.7-0.4-0.9c-0.1-0.2-0.3-0.4-0.5-0.5c-0.2-0.1-0.6-0.2-1-0.2  c-0.4,0-1-0.1-1.7-0.1c-0.8,0-1.4,0-1.9,0.1c-0.5,0.1-0.8,0.2-1,0.4c-0.2,0.2-0.3,0.4-0.3,0.7c0,0.3,0.1,0.8,0.3,1.3l7.8,20.8  c0.1,0.2,0.2,0.5,0.4,0.7c0.2,0.2,0.4,0.4,0.6,0.5l-3,7.6c-0.1,0.3-0.2,0.5-0.2,0.7c0,0.2,0.1,0.4,0.3,0.5s0.5,0.2,0.9,0.3  c0.4,0.1,0.9,0.1,1.6,0.1c1.3,0,2.3-0.1,3-0.3c0.7-0.2,1.1-0.5,1.2-0.9l2.7-8l7.5-22.2c0.1-0.4,0.2-0.8,0.2-1.1  C193.2,12,193,11.7,192.8,11.6z"></path>	<path d="M110,35.6c0.4,0.1,0.9,0.1,1.5,0.1c0.6,0,1.1,0,1.5-0.1c0.4-0.1,0.7-0.1,1-0.2c0.3-0.1,0.4-0.2,0.5-0.3  c0.1-0.1,0.2-0.3,0.2-0.5V5.4c0-0.4-0.1-0.8-0.2-1.1c-0.1-0.3-0.3-0.6-0.5-0.8c-0.2-0.2-0.5-0.4-0.8-0.5c-0.3-0.1-0.7-0.2-1.2-0.2  h-4.5c-0.6,0-1.2,0.1-1.6,0.2c-0.5,0.1-0.9,0.3-1.2,0.6c-0.3,0.3-0.6,0.7-0.9,1.2c-0.3,0.5-0.5,1.1-0.7,1.8l-7.4,19.5h-0.1  L88.5,6.5c-0.2-0.7-0.4-1.3-0.7-1.8c-0.3-0.5-0.6-0.9-1-1.2c-0.4-0.3-0.9-0.5-1.4-0.6c-0.6-0.1-1.2-0.2-2-0.2h-4.4  c-0.8,0-1.4,0.2-1.8,0.7c-0.5,0.5-0.7,1.1-0.7,2v29.2c0,0.2,0,0.3,0.1,0.5c0.1,0.1,0.3,0.2,0.5,0.3c0.3,0.1,0.6,0.2,1,0.2  c0.4,0.1,0.9,0.1,1.5,0.1c0.6,0,1.1,0,1.5-0.1c0.4-0.1,0.7-0.1,1-0.2c0.3-0.1,0.4-0.2,0.5-0.3c0.1-0.1,0.2-0.3,0.2-0.5V8h0.1  L92,34.6c0.1,0.2,0.2,0.3,0.3,0.5c0.2,0.1,0.4,0.3,0.6,0.4c0.3,0.1,0.6,0.1,1,0.2c0.4,0.1,0.9,0.1,1.5,0.1c0.6,0,1.1,0,1.5-0.1  c0.4,0,0.7-0.1,1-0.2c0.3-0.1,0.5-0.2,0.6-0.3c0.2-0.2,0.3-0.3,0.3-0.6L108.3,8h0.1v26.7c0,0.2,0.1,0.3,0.2,0.5  c0.1,0.1,0.3,0.2,0.5,0.3C109.2,35.5,109.6,35.6,110,35.6z"></path>	<path d="M123.1,35.6c0.4,0.1,0.9,0.1,1.5,0.1s1.1,0,1.5-0.1c0.4,0,0.7-0.1,1-0.2c0.3-0.1,0.4-0.2,0.5-0.3c0.1-0.1,0.2-0.3,0.2-0.5  V12.1c0-0.2,0-0.3-0.2-0.4c-0.1-0.1-0.3-0.2-0.5-0.3c-0.2-0.1-0.6-0.2-1-0.2c-0.4-0.1-0.9-0.1-1.5-0.1s-1.1,0-1.5,0.1  c-0.4,0.1-0.7,0.1-1,0.2c-0.2,0.1-0.4,0.2-0.5,0.3c-0.1,0.1-0.2,0.3-0.2,0.4v22.6c0,0.2,0.1,0.3,0.2,0.5c0.1,0.1,0.3,0.2,0.5,0.3  C122.3,35.5,122.7,35.6,123.1,35.6z"></path>	<path d="M124.6,7.8c1.4,0,2.4-0.2,2.9-0.7c0.5-0.5,0.8-1.4,0.8-2.7c0-1.2-0.3-2.1-0.8-2.6c-0.5-0.5-1.5-0.7-2.9-0.7  c-1.4,0-2.4,0.3-2.9,0.8c-0.5,0.5-0.8,1.4-0.8,2.7c0,1.2,0.2,2.1,0.7,2.6C122.2,7.6,123.2,7.8,124.6,7.8z"></path>	<path d="M144.2,35.6c1.2-0.3,2.2-0.8,3.1-1.5c0.9-0.7,1.6-1.5,2-2.5c0.5-1,0.7-2.1,0.7-3.4c0-1-0.2-1.9-0.5-2.7  c-0.3-0.8-0.7-1.4-1.3-2c-0.5-0.5-1.1-1-1.8-1.4c-0.7-0.4-1.3-0.7-2-1c-0.7-0.3-1.4-0.5-2-0.8c-0.7-0.2-1.2-0.5-1.8-0.8  c-0.5-0.3-0.9-0.6-1.3-0.9c-0.3-0.4-0.5-0.8-0.5-1.3c0-0.3,0.1-0.7,0.2-0.9c0.1-0.3,0.3-0.6,0.6-0.8c0.3-0.2,0.6-0.4,1-0.5  c0.4-0.1,0.9-0.2,1.5-0.2c0.8,0,1.5,0.1,2.2,0.3c0.6,0.2,1.2,0.4,1.7,0.6c0.5,0.2,0.9,0.4,1.2,0.6c0.3,0.2,0.6,0.3,0.7,0.3  c0.1,0,0.3,0,0.4-0.1c0.1-0.1,0.2-0.2,0.2-0.4c0.1-0.2,0.1-0.4,0.1-0.7c0-0.3,0.1-0.7,0.1-1.1c0-0.4,0-0.7-0.1-1  c0-0.3,0-0.5-0.1-0.7c0-0.2-0.1-0.3-0.2-0.5c-0.1-0.1-0.2-0.3-0.4-0.4c-0.2-0.1-0.4-0.3-0.8-0.5c-0.4-0.2-0.8-0.4-1.4-0.5  c-0.5-0.2-1.1-0.3-1.8-0.4c-0.7-0.1-1.3-0.2-2.1-0.2c-1.4,0-2.7,0.2-3.9,0.5c-1.1,0.4-2.1,0.9-2.9,1.5c-0.8,0.6-1.4,1.4-1.8,2.3  c-0.4,0.9-0.6,1.9-0.6,3c0,1.1,0.2,2,0.5,2.7c0.3,0.8,0.7,1.4,1.2,2c0.5,0.5,1.1,1,1.7,1.4c0.7,0.4,1.3,0.7,2,1  c0.7,0.3,1.4,0.5,2,0.8c0.7,0.2,1.2,0.5,1.8,0.8c0.5,0.3,0.9,0.6,1.2,1c0.3,0.4,0.5,0.8,0.5,1.3c0,0.4-0.1,0.8-0.3,1.2  c-0.2,0.3-0.4,0.6-0.8,0.8c-0.3,0.2-0.7,0.4-1.2,0.5c-0.4,0.1-0.9,0.2-1.5,0.2c-0.9,0-1.7-0.1-2.5-0.3c-0.7-0.2-1.3-0.5-1.9-0.7  s-1-0.5-1.4-0.7c-0.4-0.2-0.6-0.3-0.8-0.3c-0.2,0-0.3,0-0.4,0.1c-0.1,0.1-0.2,0.2-0.3,0.4c-0.1,0.2-0.1,0.4-0.2,0.7  c0,0.3-0.1,0.7-0.1,1.2c0,0.7,0.1,1.3,0.2,1.7c0.1,0.4,0.2,0.7,0.4,0.8c0.2,0.2,0.5,0.4,0.9,0.6c0.4,0.2,0.9,0.4,1.5,0.6  c0.6,0.2,1.3,0.3,2.1,0.5c0.8,0.1,1.6,0.2,2.4,0.2C141.7,36.1,143,36,144.2,35.6z"></path>	<path d="M166.7,16.4c0.3,0,0.6-0.2,0.7-0.6c0.2-0.4,0.3-1.1,0.3-2c0-0.5,0-0.9-0.1-1.2c0-0.3-0.1-0.6-0.2-0.8  c-0.1-0.2-0.2-0.3-0.3-0.4c-0.1-0.1-0.3-0.1-0.4-0.1h-4.9v-5c0-0.2,0-0.3-0.2-0.5c-0.1-0.1-0.3-0.2-0.5-0.3c-0.2-0.1-0.6-0.2-1-0.2  c-0.4-0.1-0.9-0.1-1.5-0.1c-0.6,0-1.1,0-1.5,0.1c-0.4,0-0.7,0.1-1,0.2c-0.2,0.1-0.4,0.2-0.5,0.3c-0.1,0.1-0.1,0.3-0.1,0.5v5h-2.7  c-0.2,0-0.3,0-0.5,0.1c-0.1,0.1-0.2,0.2-0.3,0.4c-0.1,0.2-0.2,0.4-0.2,0.8c0,0.3-0.1,0.8-0.1,1.2c0,0.9,0.1,1.6,0.3,2  c0.2,0.4,0.4,0.6,0.7,0.6h2.7V28c0,1.4,0.1,2.6,0.4,3.6c0.3,1,0.7,1.9,1.3,2.5c0.6,0.7,1.4,1.1,2.3,1.5c0.9,0.3,2,0.5,3.3,0.5  c0.5,0,0.9,0,1.4-0.1c0.5-0.1,0.9-0.1,1.3-0.2c0.4-0.1,0.8-0.2,1-0.3c0.3-0.1,0.5-0.3,0.7-0.4c0.2-0.2,0.3-0.4,0.4-0.8  c0.1-0.4,0.2-1,0.2-1.7c0-0.5,0-0.9-0.1-1.2c0-0.3-0.1-0.5-0.1-0.7c-0.1-0.2-0.1-0.3-0.2-0.4c-0.1-0.1-0.2-0.1-0.3-0.1  c-0.1,0-0.3,0-0.4,0.1c-0.1,0.1-0.3,0.1-0.5,0.2c-0.2,0.1-0.4,0.1-0.7,0.2c-0.3,0.1-0.6,0.1-0.9,0.1c-1,0-1.7-0.3-2.1-0.9  c-0.4-0.6-0.6-1.6-0.6-2.8V16.4H166.7z"></path>	<path d="M165.3,50.7c-0.4,0.3-0.9,0.6-1.4,0.7c-0.5,0.2-1,0.2-1.4,0.2c-0.7,0-1.3-0.1-1.8-0.4c-0.6-0.3-1-0.7-1.5-1.1  c-0.4-0.5-0.7-1-1-1.7c-0.2-0.6-0.3-1.3-0.3-2c0-0.6,0.1-1.2,0.3-1.8c0.2-0.6,0.5-1.2,0.9-1.6c0.4-0.5,0.9-0.9,1.4-1.2  c0.6-0.3,1.2-0.5,2-0.5c0.5,0,0.9,0.1,1.4,0.2c0.5,0.1,0.9,0.4,1.3,0.7c0.4,0.3,0.7,0.7,1,1.3l1-0.6c-0.4-0.8-0.9-1.4-1.7-1.9  c-0.8-0.5-1.7-0.8-2.8-0.8c-0.9,0-1.8,0.2-2.5,0.5c-0.7,0.3-1.3,0.8-1.8,1.4c-0.5,0.6-0.9,1.3-1.1,2c-0.3,0.7-0.4,1.5-0.4,2.2  c0,0.8,0.1,1.5,0.4,2.3c0.3,0.8,0.7,1.4,1.2,2c0.5,0.6,1.1,1.1,1.8,1.5c0.7,0.4,1.5,0.5,2.3,0.5c0.6,0,1.3-0.1,1.9-0.3  c0.7-0.2,1.3-0.5,1.8-1c0.5-0.4,0.9-0.9,1.2-1.6l-1-0.5C166,49.9,165.7,50.3,165.3,50.7z"></path>	<polygon points="90.7,40.3 89.5,40.3 89.5,52.7 97.8,52.7 97.8,51.6 90.7,51.6  "></polygon>	<path d="M85.4,50.7C85,51,84.5,51.3,84,51.4c-0.5,0.2-1,0.2-1.4,0.2c-0.7,0-1.3-0.1-1.8-0.4c-0.6-0.3-1-0.7-1.5-1.1  c-0.4-0.5-0.7-1-1-1.7c-0.2-0.6-0.3-1.3-0.3-2c0-0.6,0.1-1.2,0.3-1.8c0.2-0.6,0.5-1.2,0.9-1.6c0.4-0.5,0.9-0.9,1.4-1.2  c0.6-0.3,1.2-0.5,2-0.5c0.5,0,0.9,0.1,1.4,0.2c0.5,0.1,0.9,0.4,1.3,0.7c0.4,0.3,0.7,0.7,1,1.3l1-0.6c-0.4-0.8-0.9-1.4-1.7-1.9  c-0.8-0.5-1.7-0.8-2.8-0.8c-0.9,0-1.8,0.2-2.5,0.5c-0.7,0.3-1.3,0.8-1.8,1.4c-0.5,0.6-0.9,1.3-1.1,2c-0.3,0.7-0.4,1.5-0.4,2.2  c0,0.8,0.1,1.5,0.4,2.3c0.3,0.8,0.7,1.4,1.2,2c0.5,0.6,1.1,1.1,1.8,1.5c0.7,0.4,1.5,0.5,2.3,0.5c0.6,0,1.3-0.1,1.9-0.3  c0.7-0.2,1.3-0.5,1.8-1c0.5-0.4,0.9-0.9,1.2-1.6l-1-0.5C86.1,49.9,85.8,50.3,85.4,50.7z"></path>	<polygon points="153.2,50.6 145.1,40.3 144.1,40.3 144.1,52.7 145.3,52.7 145.3,42.6 153.2,52.7 154.4,52.7 154.4,40.4 153.2,40.4    "></polygon>	<polygon points="100.8,46.9 106.8,46.9 106.8,45.9 100.8,45.9 100.8,41.4 107.7,41.4 107.7,40.3 99.6,40.3 99.6,52.7 107.9,52.7   107.9,51.6 100.8,51.6  "></polygon>	<rect x="139.8" y="40.3" width="1.2" height="12.3"></rect>	<polygon points="131,50.6 122.9,40.3 121.9,40.3 121.9,52.7 123.1,52.7 123.1,42.6 131.1,52.7 132.2,52.7 132.2,40.4 131,40.4  "></polygon>	<path d="M114,40.3l-5.2,12.3h1.3l1.6-3.9h5.5l1.6,3.9h1.3L115,40.3H114z M112,47.9l2.5-6.1l2.5,6.1H112z"></path></g></svg>